<svg version="1.1" id="Layer_1" xmlns="http://www.w3.org/2000/svg" xmlns:xlink="http://www.w3.org/1999/xlink" x="0px" y="0px"
	 width="100%" viewBox="0 0 672 1024" enable-background="new 0 0 672 1024" xml:space="preserve">
<path fill="#000000" opacity="1.000000" stroke="none" 
	d="
M261.926758,484.469971 
	C258.523254,499.590790 252.193314,513.251770 247.329178,527.412964 
	C244.733521,534.969910 242.207687,542.557373 239.356216,550.018616 
	C232.904343,566.900879 219.288452,576.236633 201.323349,576.262512 
	C183.324371,576.288452 165.324905,576.314148 147.326324,576.216736 
	C124.650482,576.093933 108.443489,561.991211 105.047722,539.585754 
	C102.613091,523.521912 114.044968,505.159637 130.171448,499.326996 
	C136.640839,496.987122 143.339447,495.801514 150.227280,495.794983 
	C172.392807,495.773956 194.558365,495.742798 216.723785,495.785706 
	C220.002792,495.792053 222.969421,495.312378 225.527618,493.039734 
	C230.657593,488.482330 230.079010,480.953094 224.254288,477.316772 
	C221.438110,475.558624 218.325424,475.361084 215.113754,475.364624 
	C191.115051,475.391052 167.116074,475.428894 143.117722,475.329865 
	C134.938995,475.296112 129.325439,470.182648 128.498642,462.502441 
	C127.681458,454.911591 132.232025,448.532379 139.999146,446.714111 
	C142.405334,446.150848 144.944351,445.942810 147.423523,445.936371 
	C173.088608,445.869629 198.753967,445.899719 224.419113,445.842224 
	C228.613297,445.832825 232.753006,446.227325 236.800049,447.210205 
	C253.792130,451.336884 263.039764,464.910065 261.926758,484.469971 
M158.503784,525.332886 
	C153.673965,525.364807 148.827515,525.156433 144.018570,525.489685 
	C138.031052,525.904480 134.059723,530.334656 134.099884,535.971436 
	C134.141754,541.847717 137.899155,545.849670 144.268707,545.892517 
	C163.254654,546.020142 182.243118,545.961548 201.229019,545.794678 
	C207.065170,545.743408 211.356186,541.693726 211.834549,536.499756 
	C212.327194,531.150391 208.943466,526.920776 202.940582,525.651672 
	C201.172745,525.278015 199.301804,525.299805 197.477966,525.298096 
	C184.819504,525.286255 172.160980,525.316040 158.503784,525.332886 
z"/>
<path fill="#000000" opacity="1.000000" stroke="none" 
	d="
M60.002380,411.938385 
	C66.818199,411.892761 73.159554,411.497589 79.403084,412.848999 
	C90.928406,415.343628 98.901581,421.972626 102.291405,433.400726 
	C107.159195,449.811401 111.751816,466.303619 116.490349,482.752808 
	C117.010170,484.557343 117.730186,486.361237 115.697693,487.659668 
	C107.364891,492.982971 100.143509,499.455292 95.273079,507.943817 
	C93.005356,507.431030 93.040382,505.968414 92.680962,504.733917 
	C86.964096,485.098663 81.158966,465.488525 75.581741,445.813751 
	C74.565544,442.228882 72.734558,441.143677 69.187126,441.243835 
	C61.536598,441.459869 53.875126,441.370880 46.219273,441.293640 
	C37.799744,441.208679 31.524378,435.714203 30.821783,427.965546 
	C30.150331,420.560333 35.411671,414.255798 43.571968,412.604095 
	C48.853912,411.534973 54.191547,412.097351 60.002380,411.938385 
z"/>
<path fill="#000000" opacity="1.000000" stroke="none" 
	d="
M365.633301,509.195465 
	C366.469421,504.696167 372.414185,502.530609 376.466644,505.223785 
	C378.335938,506.466095 379.564362,506.538849 381.360992,505.614655 
	C387.510223,502.451355 393.357727,503.445007 398.698608,507.437622 
	C400.958466,509.127045 402.422974,509.660034 405.130920,507.758759 
	C416.125519,500.039246 433.772675,504.590790 435.538300,521.227112 
	C436.423309,529.565918 435.821503,537.854919 435.951721,546.164795 
	C436.032654,551.328918 432.113312,550.033020 429.149719,550.206482 
	C425.974548,550.392395 423.576538,549.861023 423.684479,545.744995 
	C423.850281,539.421448 423.760162,533.089355 423.687958,526.761902 
	C423.612183,520.123291 420.590820,516.337036 415.503632,516.325806 
	C410.609009,516.315002 407.374298,520.365173 407.287140,526.829407 
	C407.201843,533.156555 407.132294,539.488586 407.293091,545.812500 
	C407.387665,549.532043 405.426208,550.532227 402.307953,550.158386 
	C399.561584,549.829102 395.461060,551.797180 395.432404,546.337708 
	C395.405365,541.182190 395.207947,536.027527 395.069458,530.872864 
	C395.011383,528.711365 395.081940,526.528442 394.798309,524.394531 
	C394.072327,518.932617 390.756958,515.953796 385.922546,516.198059 
	C381.333588,516.429810 378.426819,519.529358 378.261963,524.960205 
	C378.065002,531.448792 377.973602,537.958801 378.280579,544.438477 
	C378.507660,549.232361 376.454987,550.413452 372.051178,550.280518 
	C368.014099,550.158691 365.454346,549.771606 365.585114,544.640442 
	C365.881866,532.991272 365.649506,521.328552 365.633301,509.195465 
z"/>
<path fill="#000000" opacity="1.000000" stroke="none" 
	d="
M447.493408,567.666748 
	C445.397675,565.458801 445.842804,563.031128 445.834839,560.753723 
	C445.777832,544.459534 445.792938,528.165100 445.769928,511.870789 
	C445.760498,505.171600 451.331451,501.884033 457.199158,505.603577 
	C459.451447,507.031342 460.831177,506.889679 462.984070,506.003693 
	C473.197906,501.800385 483.981445,504.100647 490.326569,511.647888 
	C497.109711,519.716003 497.845581,531.789978 492.116547,541.019714 
	C486.763275,549.644165 474.340149,553.299744 463.718414,549.369690 
	C462.210175,548.811646 460.713531,548.222351 458.890594,547.524658 
	C457.729797,552.505737 458.352539,557.133057 458.249237,561.703369 
	C458.092072,568.654175 458.170319,568.666443 451.322845,568.294617 
	C450.167633,568.231873 449.019775,568.034546 447.493408,567.666748 
M468.302246,538.491821 
	C469.955261,538.554016 471.629150,538.814941 473.257690,538.643921 
	C480.368225,537.897400 485.088806,531.257935 483.162842,524.861145 
	C481.389954,518.972839 476.737762,515.888489 470.250122,516.300232 
	C464.498169,516.665283 460.523560,519.864258 459.505249,524.948242 
	C458.439484,530.269043 461.580475,535.456787 468.302246,538.491821 
z"/>
<path fill="#000000" opacity="1.000000" stroke="none" 
	d="
M529.953979,507.763916 
	C537.847107,503.506744 545.536987,501.881622 553.537476,506.424286 
	C554.949341,507.225922 556.277832,507.609344 557.424561,505.920319 
	C558.279602,504.660858 559.687500,504.725128 561.031616,504.647278 
	C569.791504,504.140320 570.059082,504.369141 570.101318,513.109741 
	C570.148071,522.772278 570.180542,532.434998 570.195190,542.097595 
	C570.207275,550.029724 565.187317,553.051941 558.056763,549.056519 
	C556.057190,547.936096 554.802307,548.226135 553.063477,548.973755 
	C541.583618,553.909546 528.838440,550.302490 523.247437,540.594055 
	C516.829956,529.450439 519.570679,515.429321 529.953979,507.763916 
M538.556030,538.171326 
	C539.976868,538.625671 541.367310,539.262207 542.823425,539.504578 
	C551.766296,540.992981 559.642212,532.399536 556.988647,524.116943 
	C555.296997,518.836670 550.949280,515.457520 545.574463,515.245544 
	C539.763977,515.016357 535.283142,517.812561 533.386841,522.851074 
	C531.194092,528.677551 532.606201,533.354126 538.556030,538.171326 
z"/>
<path fill="#000000" opacity="1.000000" stroke="none" 
	d="
M610.800293,523.375732 
	C614.519348,505.932861 632.441833,497.807404 647.763855,506.187317 
	C654.778442,510.023743 659.779785,521.362976 657.986877,529.054932 
	C657.314636,531.939209 655.215820,532.033997 653.003845,532.045837 
	C645.505981,532.085876 638.007629,532.045593 630.510254,532.119019 
	C628.586731,532.137878 626.501770,531.598450 624.626160,533.272766 
	C624.889648,536.401001 627.256592,537.664673 629.729309,538.583679 
	C634.846680,540.485474 639.849609,540.030151 644.686401,537.443787 
	C647.796936,535.780457 654.550293,539.328735 654.745605,542.749817 
	C654.859436,544.743103 653.106262,545.539124 651.734863,546.388916 
	C642.179504,552.310303 632.058228,552.761597 622.170288,547.953674 
	C612.278015,543.143616 610.184753,533.946716 610.800293,523.375732 
M643.102173,517.228516 
	C635.737122,512.368652 628.149292,513.694824 625.211121,520.755920 
	C630.970520,522.188354 636.718262,521.732239 642.408325,521.311829 
	C644.546021,521.153870 645.041016,519.548401 643.102173,517.228516 
z"/>
<path fill="#000000" opacity="1.000000" stroke="none" 
	d="
M347.218781,505.343109 
	C355.686798,509.688019 360.606262,519.637939 359.152893,528.505127 
	C358.639893,531.635132 356.593414,532.070007 354.110382,532.077942 
	C346.614899,532.101746 339.118286,532.021790 331.624573,532.139771 
	C329.801727,532.168396 326.982849,531.293884 326.587494,533.959473 
	C326.183685,536.682068 328.752289,537.891479 330.991821,538.617798 
	C336.100891,540.274902 341.126160,540.145874 345.993286,537.545227 
	C349.213654,535.824463 353.642822,537.781677 355.376495,541.821106 
	C356.855774,545.267822 353.622437,546.107910 351.684692,547.193848 
	C343.511230,551.774597 334.858459,552.191101 326.127441,549.109436 
	C314.492279,545.002747 310.959717,532.781433 312.159851,523.539795 
	C313.726105,511.479126 321.939178,504.151886 333.562744,503.722382 
	C338.049683,503.556519 342.573975,503.341919 347.218781,505.343109 
M338.108002,514.369629 
	C333.264191,514.118286 329.187164,515.312073 326.499481,520.043213 
	C332.952393,522.011047 340.972504,521.879639 345.918701,519.856384 
	C344.941498,516.256531 341.967773,515.289490 338.108002,514.369629 
z"/>
<path fill="#000000" opacity="1.000000" stroke="none" 
	d="
M295.970032,558.708008 
	C297.796997,558.701965 299.129578,558.691345 300.462158,558.692566 
	C306.269226,558.697937 306.456543,559.070984 306.395416,564.987915 
	C306.361542,568.270691 305.029236,569.386292 301.896210,569.337097 
	C295.401733,569.234924 288.898590,569.507751 282.409546,569.298767 
	C277.711975,569.147522 277.558380,571.993835 277.374207,575.444641 
	C277.164093,579.382080 279.382599,579.719177 282.411591,579.659729 
	C288.406189,579.541809 294.409210,579.738892 300.398834,579.526489 
	C303.604797,579.412659 305.441925,579.960876 305.318878,583.772278 
	C305.205536,587.282654 305.026520,590.083557 300.395111,589.965271 
	C294.402740,589.812195 288.401062,590.042236 282.407227,589.920166 
	C278.939514,589.849487 277.240143,590.870422 277.297119,594.756653 
	C277.349762,598.343811 278.418060,599.935791 282.166260,599.842896 
	C288.658173,599.681946 295.162415,599.976013 301.651886,599.772705 
	C306.084534,599.633972 306.296143,602.203003 306.348267,605.544678 
	C306.399384,608.826416 305.895294,611.086426 301.884827,611.037292 
	C291.725159,610.912964 281.563782,610.919373 271.403015,610.906677 
	C268.168518,610.902649 266.617310,609.645691 266.648651,606.126404 
	C266.776276,591.802185 266.784821,577.475403 266.644897,563.151367 
	C266.609192,559.496765 268.246155,558.624756 271.489532,558.674194 
	C279.483215,558.796082 287.480072,558.710754 295.970032,558.708008 
z"/>
<path fill="#000000" opacity="1.000000" stroke="none" 
	d="
M285.203033,546.422729 
	C285.152405,531.497253 284.987122,517.011169 285.251068,502.532867 
	C285.319763,498.764252 284.002502,497.928955 280.704315,498.082001 
	C277.048553,498.251648 273.377533,498.097412 269.713226,498.077393 
	C265.001129,498.051666 265.809998,494.606995 265.712158,491.671936 
	C265.610687,488.629669 265.692993,485.971008 269.924744,485.983093 
	C284.915924,486.025909 299.907562,485.959045 314.898834,485.889771 
	C318.829498,485.871613 319.020599,488.507111 318.893707,491.334808 
	C318.766083,494.178619 319.769196,497.828705 315.113159,498.041138 
	C311.288757,498.215637 307.448669,498.248016 303.622620,498.124207 
	C300.226562,498.014252 299.033447,499.427673 298.826355,502.827698 
	C297.994843,516.479370 298.489960,530.136353 298.284210,543.788391 
	C298.250183,546.045959 299.453796,549.584290 295.719543,549.742310 
	C292.118256,549.894714 287.566772,551.939819 285.203033,546.422729 
z"/>
<path fill="#000000" opacity="1.000000" stroke="none" 
	d="
M397.193451,597.055664 
	C397.197449,600.205383 397.081238,602.877380 397.229340,605.534607 
	C397.440369,609.320496 395.915039,611.003601 392.002258,610.949646 
	C388.253082,610.897827 386.623383,609.563904 386.717743,605.610779 
	C386.920441,597.119690 386.770264,588.620178 386.766083,580.124146 
	C386.763000,573.892334 388.700165,572.126709 394.509003,574.039917 
	C396.821808,574.801636 398.421021,574.727966 400.498627,573.779358 
	C405.057312,571.698120 409.337494,572.906677 413.172791,575.714966 
	C415.099060,577.125427 416.524933,577.686646 418.908051,576.228638 
	C430.581543,569.086853 442.620300,574.934509 443.992554,588.551208 
	C444.607727,594.655518 444.147156,600.866272 444.217316,607.028198 
	C444.258728,610.666870 441.739075,610.844299 439.114868,610.900330 
	C436.428650,610.957642 433.977386,610.667419 433.968964,607.089050 
	C433.956818,601.925049 433.978851,596.760498 433.911835,591.597168 
	C433.861908,587.752441 433.341736,583.878601 428.577850,583.340027 
	C423.738495,582.792908 421.735565,586.440430 420.830414,590.292480 
	C419.681641,595.181152 420.284546,600.238892 420.677368,605.212891 
	C420.926300,608.365356 420.845673,610.873535 416.621002,610.938354 
	C412.877930,610.995850 410.523376,610.201599 410.783600,605.712341 
	C411.043427,601.230530 410.880981,596.718506 410.777374,592.222656 
	C410.643188,586.397522 407.933563,582.957458 403.765747,583.114258 
	C399.716980,583.266602 397.306702,586.543213 397.197968,592.073486 
	C397.168488,593.572266 397.192047,595.072021 397.193451,597.055664 
z"/>
<path fill="#000000" opacity="1.000000" stroke="none" 
	d="
M458.054565,573.624634 
	C461.038818,574.864868 463.419861,575.052002 466.268097,573.689087 
	C470.404297,571.709900 474.468170,573.045837 477.888062,575.847961 
	C480.053192,577.621887 481.640900,577.496582 484.016479,575.934570 
	C494.524689,569.025024 506.734375,574.631775 508.024384,587.134644 
	C508.704285,593.724182 508.234375,600.431396 508.305115,607.085205 
	C508.348907,611.202087 505.273926,610.731812 502.688965,610.892395 
	C499.960876,611.061951 498.311859,610.261169 498.467926,606.955994 
	C498.710571,601.816406 498.743378,596.647766 498.489807,591.510010 
	C498.296753,587.598083 497.565643,583.595886 492.371979,583.340820 
	C488.501404,583.150757 485.768860,586.239136 485.454346,591.549744 
	C485.159729,596.524536 485.242859,601.530823 485.365601,606.518188 
	C485.456390,610.206970 483.480530,610.956116 480.325684,610.911743 
	C477.190216,610.867615 475.199799,610.119446 475.425964,606.408691 
	C475.648163,602.763489 475.576355,599.097839 475.558167,595.441528 
	C475.549103,593.619568 475.620422,591.741333 475.218597,589.988647 
	C474.358643,586.237976 472.875763,582.864380 468.088013,583.172058 
	C463.459686,583.469299 461.839844,586.832947 461.515381,590.649231 
	C461.107910,595.441345 460.994446,600.326111 461.447235,605.105286 
	C461.940399,610.310730 459.152405,610.648804 455.196991,610.748474 
	C450.649506,610.862976 451.060272,607.860718 451.090790,605.044678 
	C451.184418,596.400635 451.033142,587.761658 451.434509,579.108215 
	C451.656738,574.316101 453.258820,572.804626 458.054565,573.624634 
z"/>
<path fill="#000000" opacity="1.000000" stroke="none" 
	d="
M633.926697,610.646606 
	C624.058228,607.280212 619.092590,598.413757 620.849365,587.891907 
	C622.372253,578.770569 629.367065,572.944885 639.123657,572.671875 
	C651.785034,572.317627 657.604492,577.357178 658.939209,589.832031 
	C659.501038,595.082520 658.717651,596.046692 653.469238,596.127869 
	C646.817566,596.230835 640.164062,596.220520 633.511597,596.282654 
	C633.215088,596.285400 632.920776,596.522400 632.627197,596.654419 
	C635.013611,601.960632 640.073608,603.358337 646.758667,600.583618 
	C648.653503,599.797058 650.303406,598.208801 652.630859,600.207458 
	C656.994873,603.954834 656.929932,606.369446 651.857361,609.073181 
	C646.270935,612.050659 640.328857,611.816284 633.926697,610.646606 
M647.373169,584.541077 
	C641.894592,580.516357 635.907166,581.185852 633.193298,586.387878 
	C637.636963,587.515442 642.045898,586.840332 646.418823,586.775024 
	C647.396362,586.760376 647.887207,586.162720 647.373169,584.541077 
z"/>
<path fill="#000000" opacity="1.000000" stroke="none" 
	d="
M521.473145,607.669312 
	C510.474121,596.533813 512.851746,578.655396 526.110474,573.921021 
	C538.533875,569.484985 553.213745,574.529419 552.429993,591.549255 
	C552.268372,595.058899 551.019409,596.223083 547.680603,596.163086 
	C540.590637,596.035645 533.496826,596.124207 526.134277,596.124207 
	C528.482971,602.116089 534.361267,603.648926 541.463501,600.305420 
	C544.186218,599.023560 545.760254,599.178833 547.907349,601.355408 
	C550.956116,604.446106 550.236755,606.599792 546.902405,608.313660 
	C538.492615,612.636230 530.062561,612.998474 521.473145,607.669312 
M528.003113,584.041077 
	C526.898560,585.197266 526.281494,586.602722 528.531433,586.696533 
	C532.717041,586.871094 536.984619,587.426453 541.212830,586.109985 
	C538.937378,581.541321 534.996948,580.836487 528.003113,584.041077 
z"/>
<path fill="#000000" opacity="1.000000" stroke="none" 
	d="
M583.624512,544.092041 
	C580.238281,537.344421 581.108459,530.422058 581.082153,523.653564 
	C581.065674,519.388306 581.254272,515.894348 575.276001,515.554016 
	C571.455688,515.336487 573.096130,511.393646 572.845520,508.979919 
	C572.615540,506.765381 573.336792,504.710266 575.983459,504.914032 
	C580.884827,505.291412 582.161011,502.738831 581.629883,498.548309 
	C581.169556,494.916046 582.883423,493.371857 586.315796,493.097839 
	C588.446594,492.927704 590.547302,492.241791 593.008423,492.871368 
	C593.133728,493.581757 593.373169,494.356140 593.392029,495.135864 
	C593.600281,503.750275 593.579773,503.860016 601.924927,504.714935 
	C606.973511,505.232147 604.906311,508.969421 605.265747,511.547516 
	C605.662109,514.390503 604.398315,515.812622 601.325928,515.862183 
	C593.295776,515.991455 593.297974,516.071655 593.310852,524.128052 
	C593.315369,526.958313 593.233887,529.791443 593.332764,532.618286 
	C593.510803,537.710815 595.114990,539.135986 600.125610,538.848511 
	C604.559387,538.594116 606.271545,540.414856 606.887390,546.131226 
	C607.361389,550.530945 603.575928,549.804993 601.409485,550.084167 
	C594.779175,550.938416 588.350464,550.445251 583.624512,544.092041 
z"/>
<path fill="#000000" opacity="1.000000" stroke="none" 
	d="
M343.817383,589.377808 
	C346.729614,576.805481 356.501404,570.541443 367.940186,573.501526 
	C378.709259,576.288330 384.509155,586.952698 381.319580,598.102295 
	C378.758545,607.054810 370.590332,612.181152 360.455475,611.196533 
	C351.229797,610.300171 344.425507,603.429993 343.777039,594.297791 
	C343.671448,592.810547 343.775055,591.308594 343.817383,589.377808 
M370.744537,596.976379 
	C372.494843,592.838257 372.627594,588.766846 369.369415,585.356018 
	C367.105347,582.985962 364.152985,581.731506 360.741455,582.691650 
	C356.556824,583.869446 354.342316,586.771729 354.068481,591.038086 
	C353.790314,595.371948 355.169556,598.993591 359.442688,600.804993 
	C363.860016,602.677368 367.572510,601.623291 370.744537,596.976379 
z"/>
<path fill="#000000" opacity="1.000000" stroke="none" 
	d="
M207.495834,587.484497 
	C213.984772,594.975830 213.968872,603.792175 207.725830,610.091858 
	C201.948883,615.921204 192.823013,616.307678 186.486053,610.991272 
	C180.064758,605.604126 178.830566,596.352417 183.607315,589.411682 
	C188.909042,581.708130 199.052109,580.768555 207.495834,587.484497 
z"/>
<path fill="#000000" opacity="1.000000" stroke="none" 
	d="
M134.326263,601.364258 
	C133.552261,591.389038 139.700790,583.662903 148.653290,582.836487 
	C156.853043,582.079468 164.361237,588.524292 165.420609,597.228882 
	C166.456421,605.739807 160.309052,613.381531 151.397202,614.661499 
	C143.819702,615.749756 137.297760,610.789307 134.326263,601.364258 
z"/>
<path fill="#000000" opacity="1.000000" stroke="none" 
	d="
M501.946533,528.999451 
	C501.914032,516.195984 502.049591,503.888641 501.777802,491.590363 
	C501.666992,486.576996 504.180328,485.910767 508.276917,485.922516 
	C512.196838,485.933777 514.439819,486.573425 514.380371,491.347168 
	C514.158691,509.135406 514.199158,526.928955 514.363708,544.718445 
	C514.402161,548.877869 512.871216,550.291870 508.827148,550.261414 
	C504.957642,550.232178 501.819458,550.143921 501.996033,544.959656 
	C502.171326,539.812683 501.980835,534.653259 501.946533,528.999451 
z"/>
<path fill="#000000" opacity="1.000000" stroke="none" 
	d="
M314.179016,578.206421 
	C322.026093,571.773071 331.820557,570.788208 338.882019,575.607117 
	C340.374756,576.625854 343.096008,577.616455 341.190369,580.083252 
	C339.613281,582.124695 338.414490,585.398682 334.676971,584.284790 
	C333.728302,584.002014 332.846375,583.502869 331.914520,583.154724 
	C327.548645,581.523743 324.059601,582.972168 321.361755,586.456360 
	C318.767853,589.806274 318.446960,593.538025 320.736450,597.139709 
	C323.139038,600.919312 326.950073,602.696777 331.045807,600.986084 
	C336.420593,598.741150 339.828796,600.267700 342.519226,604.880188 
	C337.569244,612.690063 325.379456,614.233643 316.933075,608.173096 
	C307.798004,601.618347 306.435425,588.186584 314.179016,578.206421 
z"/>
<path fill="#000000" opacity="1.000000" stroke="none" 
	d="
M601.021729,611.322266 
	C592.256165,609.147339 587.258484,603.840881 586.403870,595.265808 
	C585.647949,587.680420 586.842407,580.496338 593.966553,575.930176 
	C600.893616,571.490479 608.109314,571.377686 615.242371,575.420105 
	C616.894836,576.356628 620.075562,577.405396 618.200623,580.065735 
	C616.624268,582.302551 615.187683,585.924744 610.771362,583.893555 
	C605.547607,581.491089 600.812012,582.475220 598.198120,586.114929 
	C595.466492,589.918640 595.539551,593.933838 598.149902,597.762268 
	C600.684509,601.479431 605.628235,602.716858 610.685791,600.302917 
	C615.374878,598.064819 616.838379,601.777710 618.477844,604.206665 
	C620.399902,607.054504 617.294861,608.261353 615.407288,609.338318 
	C611.059326,611.819092 606.366028,612.599731 601.021729,611.322266 
z"/>
<path fill="#000000" opacity="1.000000" stroke="none" 
	d="
M581.955078,573.516724 
	C584.170288,574.930786 588.020630,575.151733 586.099792,578.644775 
	C584.624695,581.327393 584.337036,585.996948 578.473450,583.702087 
	C572.575562,581.393738 567.635193,585.542175 567.408325,592.029907 
	C567.234192,597.010620 567.241028,602.005371 567.389954,606.987183 
	C567.498901,610.633972 565.263000,610.971985 562.537048,610.977966 
	C559.818787,610.983948 557.600647,610.676880 557.639038,607.028687 
	C557.742310,597.223206 557.628967,587.415649 557.668945,577.609192 
	C557.692383,571.867920 562.297485,573.340881 564.904541,574.006592 
	C567.725220,574.726807 569.772400,574.427917 572.279907,573.352600 
	C575.250549,572.078552 578.473694,572.514954 581.955078,573.516724 
z"/>
</svg>